<?xml version="1.0" encoding="UTF-8"?><svg id="Layer_2" xmlns="http://www.w3.org/2000/svg" viewBox="0 0 250 62.05"><defs><style>.cls-1{fill:#f7d431;}</style></defs><g id="Ebene_1"><g><g><polygon class="cls-1" points="16.3 45.75 16.3 16.1 45.94 16.1 45.94 16.1 62.05 0 0 0 0 62.05 62.05 62.05 45.94 45.75 16.3 45.75"/><rect x="16.3" y="16.1" width="29.64" height="29.64"/></g><g><polygon points="80.67 17.92 74.13 17.92 74.13 44.12 91.3 44.12 91.3 38.88 80.67 38.88 80.67 17.92"/><rect x="94.45" y="17.92" width="6.54" height="26.2"/><polygon points="121.38 32.62 111.3 17.92 106.1 17.92 106.1 44.12 112.24 44.12 112.24 29.62 122.24 44.12 127.52 44.12 127.52 17.92 121.38 17.92 121.38 32.62"/><polygon points="153.39 17.92 145.79 17.92 138.78 27.64 138.78 17.92 132.24 17.92 132.24 44.12 138.78 44.12 138.78 37.17 141.14 34.06 147.01 44.12 154.8 44.12 145.35 28.52 153.39 17.92"/><polygon points="175.71 17.92 155 17.92 155 23.16 162.09 23.16 162.09 44.12 168.62 44.12 168.62 23.16 175.71 23.16 175.71 17.92"/><path d="M183.58,17.92l-9.45,26.2h6.97l1.42-4.48h8.39l1.46,4.48h6.97l-9.45-26.2h-6.3Zm.63,16.48l2.52-7.75,2.48,7.75h-5Z"/><polygon points="216.57 32.62 206.49 17.92 201.3 17.92 201.3 44.12 207.44 44.12 207.44 29.62 217.44 44.12 222.72 44.12 222.72 17.92 216.57 17.92 216.57 32.62"/><polygon points="240.55 28.52 248.58 17.92 240.98 17.92 233.97 27.64 233.97 17.92 227.44 17.92 227.44 44.12 233.97 44.12 233.97 37.17 236.34 34.06 242.2 44.12 250 44.12 240.55 28.52"/><path d="M66.61,30.34c1.89-1.21,3.11-2.77,3.11-5.47,0-4.78-3.74-6.95-10.16-6.95h-9.49v26.2h10.36c7.24,0,10.16-3.34,10.16-7.52,0-3.23-1.5-5.09-3.98-6.26Zm-7.84-7.21c3.58,0,4.41,.91,4.41,2.47s-1.18,2.32-3.82,2.32h-2.76v-4.78h2.17Zm.94,15.76h-3.11v-5.73h2.64c3.31,0,4.8,.72,4.8,2.85,0,1.94-1.42,2.89-4.33,2.89Z"/></g></g></g></svg>