<?xml version="1.0" encoding="UTF-8"?><svg id="Layer_2" xmlns="http://www.w3.org/2000/svg" viewBox="0 0 513.98 127.56"><defs><style>.cls-1{fill:#f7d431;}</style></defs><g id="Ebene_1"><g><g><polygon class="cls-1" points="33.5 94.05 33.5 33.11 94.45 33.11 94.45 33.11 127.56 0 0 0 0 127.56 127.56 127.56 94.45 94.05 33.5 94.05"/><rect class="cls-1" x="42.01" y="41.61" width="43.94" height="43.94"/></g><g><polygon class="cls-1" points="165.85 36.85 152.41 36.85 152.41 90.71 187.7 90.71 187.7 79.94 165.85 79.94 165.85 36.85"/><rect class="cls-1" x="194.17" y="36.85" width="13.44" height="53.86"/><polygon class="cls-1" points="249.54 67.06 228.82 36.85 218.13 36.85 218.13 90.71 230.76 90.71 230.76 60.89 251.32 90.71 262.17 90.71 262.17 36.85 249.54 36.85 249.54 67.06"/><polygon class="cls-1" points="315.35 36.85 299.72 36.85 285.31 56.83 285.31 36.85 271.88 36.85 271.88 90.71 285.31 90.71 285.31 76.42 290.17 70.02 302.23 90.71 318.26 90.71 298.83 58.63 315.35 36.85"/><polygon class="cls-1" points="361.24 36.85 318.66 36.85 318.66 47.62 333.23 47.62 333.23 90.71 346.67 90.71 346.67 47.62 361.24 47.62 361.24 36.85"/><path class="cls-1" d="M377.43,36.85l-19.43,53.86h14.33l2.91-9.21h17.24l2.99,9.21h14.33l-19.43-53.86h-12.95Zm1.29,33.88l5.18-15.92,5.1,15.92h-10.28Z"/><polygon class="cls-1" points="445.26 67.06 424.53 36.85 413.85 36.85 413.85 90.71 426.48 90.71 426.48 60.89 447.04 90.71 457.88 90.71 457.88 36.85 445.26 36.85 445.26 67.06"/><polygon class="cls-1" points="494.55 58.63 511.06 36.85 495.44 36.85 481.03 56.83 481.03 36.85 467.59 36.85 467.59 90.71 481.03 90.71 481.03 76.42 485.89 70.02 497.95 90.71 513.98 90.71 494.55 58.63"/><path class="cls-1" d="M136.95,62.37c3.89-2.5,6.39-5.7,6.39-11.24,0-9.83-7.69-14.28-20.88-14.28h-19.51v53.86h21.29c14.89,0,20.88-6.87,20.88-15.46,0-6.63-3.08-10.46-8.18-12.88Zm-16.11-14.83c7.37,0,9.07,1.87,9.07,5.07s-2.43,4.76-7.85,4.76h-5.67v-9.83h4.45Zm1.94,32.39h-6.39v-11.79h5.42c6.8,0,9.88,1.48,9.88,5.85,0,3.98-2.91,5.93-8.9,5.93Z"/></g></g></g></svg>